<mxfile host="app.diagrams.net" agent="Mozilla/5.0 (Windows NT 10.0; Win64; x64) AppleWebKit/537.36 (KHTML, like Gecko) Chrome/134.0.0.0 Safari/537.36" version="26.1.1">
  <diagram name="Page-1" id="RMpTuGC166T-98APkbjS">
    <mxGraphModel dx="2545" dy="983" grid="1" gridSize="10" guides="1" tooltips="1" connect="1" arrows="1" fold="1" page="1" pageScale="1" pageWidth="850" pageHeight="1100" math="0" shadow="0">
      <root>
        <mxCell id="0" />
        <mxCell id="1" parent="0" />
        <mxCell id="BLw7UrRm_ujUXIKyPQ4O-177" style="edgeStyle=orthogonalEdgeStyle;rounded=0;orthogonalLoop=1;jettySize=auto;html=1;exitX=1;exitY=0.5;exitDx=0;exitDy=0;entryX=0;entryY=0.25;entryDx=0;entryDy=0;endArrow=none;startFill=0;" edge="1" parent="1" source="BLw7UrRm_ujUXIKyPQ4O-81" target="BLw7UrRm_ujUXIKyPQ4O-125">
          <mxGeometry relative="1" as="geometry" />
        </mxCell>
        <mxCell id="BLw7UrRm_ujUXIKyPQ4O-81" value="shopperName" style="ellipse;whiteSpace=wrap;html=1;align=center;flipH=1;" vertex="1" parent="1">
          <mxGeometry x="10" y="850" width="100" height="40" as="geometry" />
        </mxCell>
        <mxCell id="BLw7UrRm_ujUXIKyPQ4O-12" value="Product" style="whiteSpace=wrap;html=1;align=center;" vertex="1" parent="1">
          <mxGeometry x="165" y="140" width="100" height="40" as="geometry" />
        </mxCell>
        <mxCell id="BLw7UrRm_ujUXIKyPQ4O-13" value="productID" style="ellipse;whiteSpace=wrap;html=1;align=center;" vertex="1" parent="1">
          <mxGeometry x="30" y="90" width="100" height="40" as="geometry" />
        </mxCell>
        <mxCell id="BLw7UrRm_ujUXIKyPQ4O-16" style="edgeStyle=orthogonalEdgeStyle;rounded=0;orthogonalLoop=1;jettySize=auto;html=1;exitX=0.5;exitY=1;exitDx=0;exitDy=0;entryX=0.5;entryY=0;entryDx=0;entryDy=0;startArrow=none;startFill=0;endArrow=none;" edge="1" parent="1" source="BLw7UrRm_ujUXIKyPQ4O-15" target="BLw7UrRm_ujUXIKyPQ4O-12">
          <mxGeometry relative="1" as="geometry">
            <Array as="points">
              <mxPoint x="195" y="120" />
              <mxPoint x="195" y="140" />
            </Array>
          </mxGeometry>
        </mxCell>
        <mxCell id="BLw7UrRm_ujUXIKyPQ4O-15" value="productName" style="ellipse;whiteSpace=wrap;html=1;align=center;" vertex="1" parent="1">
          <mxGeometry x="140" y="70" width="100" height="40" as="geometry" />
        </mxCell>
        <mxCell id="BLw7UrRm_ujUXIKyPQ4O-33" style="edgeStyle=orthogonalEdgeStyle;rounded=0;orthogonalLoop=1;jettySize=auto;html=1;exitX=1;exitY=0.5;exitDx=0;exitDy=0;entryX=0;entryY=0.5;entryDx=0;entryDy=0;endArrow=none;startFill=0;" edge="1" parent="1" source="BLw7UrRm_ujUXIKyPQ4O-17" target="BLw7UrRm_ujUXIKyPQ4O-12">
          <mxGeometry relative="1" as="geometry">
            <Array as="points">
              <mxPoint x="115" y="160" />
            </Array>
          </mxGeometry>
        </mxCell>
        <mxCell id="BLw7UrRm_ujUXIKyPQ4O-17" value="productDesc" style="ellipse;whiteSpace=wrap;html=1;align=center;" vertex="1" parent="1">
          <mxGeometry x="15" y="180" width="100" height="40" as="geometry" />
        </mxCell>
        <mxCell id="BLw7UrRm_ujUXIKyPQ4O-64" style="edgeStyle=orthogonalEdgeStyle;rounded=0;orthogonalLoop=1;jettySize=auto;html=1;exitX=0.5;exitY=0;exitDx=0;exitDy=0;entryX=0.75;entryY=1;entryDx=0;entryDy=0;endArrow=none;startFill=0;" edge="1" parent="1" source="BLw7UrRm_ujUXIKyPQ4O-18" target="BLw7UrRm_ujUXIKyPQ4O-12">
          <mxGeometry relative="1" as="geometry">
            <Array as="points">
              <mxPoint x="240" y="210" />
            </Array>
          </mxGeometry>
        </mxCell>
        <mxCell id="BLw7UrRm_ujUXIKyPQ4O-18" value="stock" style="ellipse;whiteSpace=wrap;html=1;align=center;" vertex="1" parent="1">
          <mxGeometry x="205" y="210" width="100" height="40" as="geometry" />
        </mxCell>
        <mxCell id="BLw7UrRm_ujUXIKyPQ4O-23" style="edgeStyle=orthogonalEdgeStyle;rounded=0;orthogonalLoop=1;jettySize=auto;html=1;exitX=1;exitY=0;exitDx=0;exitDy=0;entryX=0;entryY=0.75;entryDx=0;entryDy=0;endArrow=none;startFill=0;" edge="1" parent="1" source="BLw7UrRm_ujUXIKyPQ4O-19" target="BLw7UrRm_ujUXIKyPQ4O-12">
          <mxGeometry relative="1" as="geometry">
            <mxPoint x="160" y="220" as="sourcePoint" />
            <mxPoint x="445" y="180" as="targetPoint" />
            <Array as="points">
              <mxPoint x="160" y="170" />
            </Array>
          </mxGeometry>
        </mxCell>
        <mxCell id="BLw7UrRm_ujUXIKyPQ4O-19" value="price" style="ellipse;whiteSpace=wrap;html=1;align=center;" vertex="1" parent="1">
          <mxGeometry x="95" y="210" width="100" height="40" as="geometry" />
        </mxCell>
        <mxCell id="BLw7UrRm_ujUXIKyPQ4O-65" style="edgeStyle=orthogonalEdgeStyle;rounded=0;orthogonalLoop=1;jettySize=auto;html=1;exitX=0.5;exitY=1;exitDx=0;exitDy=0;entryX=0.75;entryY=0;entryDx=0;entryDy=0;endArrow=none;startFill=0;" edge="1" parent="1" source="BLw7UrRm_ujUXIKyPQ4O-21" target="BLw7UrRm_ujUXIKyPQ4O-12">
          <mxGeometry relative="1" as="geometry" />
        </mxCell>
        <mxCell id="BLw7UrRm_ujUXIKyPQ4O-21" value="categoryId" style="ellipse;whiteSpace=wrap;html=1;align=center;" vertex="1" parent="1">
          <mxGeometry x="250" y="70" width="100" height="40" as="geometry" />
        </mxCell>
        <mxCell id="BLw7UrRm_ujUXIKyPQ4O-67" style="edgeStyle=orthogonalEdgeStyle;rounded=0;orthogonalLoop=1;jettySize=auto;html=1;exitX=0;exitY=0.5;exitDx=0;exitDy=0;entryX=0.5;entryY=0;entryDx=0;entryDy=0;endArrow=none;startFill=0;" edge="1" parent="1" source="BLw7UrRm_ujUXIKyPQ4O-37" target="BLw7UrRm_ujUXIKyPQ4O-38">
          <mxGeometry relative="1" as="geometry" />
        </mxCell>
        <mxCell id="BLw7UrRm_ujUXIKyPQ4O-37" value="categoryID" style="ellipse;whiteSpace=wrap;html=1;align=center;" vertex="1" parent="1">
          <mxGeometry x="685" y="80" width="100" height="40" as="geometry" />
        </mxCell>
        <mxCell id="BLw7UrRm_ujUXIKyPQ4O-38" value="Category" style="whiteSpace=wrap;html=1;align=center;" vertex="1" parent="1">
          <mxGeometry x="615" y="130" width="100" height="40" as="geometry" />
        </mxCell>
        <mxCell id="BLw7UrRm_ujUXIKyPQ4O-68" style="edgeStyle=orthogonalEdgeStyle;rounded=0;orthogonalLoop=1;jettySize=auto;html=1;exitX=0;exitY=0.5;exitDx=0;exitDy=0;entryX=0.5;entryY=1;entryDx=0;entryDy=0;endArrow=none;startFill=0;" edge="1" parent="1" source="BLw7UrRm_ujUXIKyPQ4O-40" target="BLw7UrRm_ujUXIKyPQ4O-38">
          <mxGeometry relative="1" as="geometry" />
        </mxCell>
        <mxCell id="BLw7UrRm_ujUXIKyPQ4O-40" value="categoryName" style="ellipse;whiteSpace=wrap;html=1;align=center;" vertex="1" parent="1">
          <mxGeometry x="685" y="180" width="100" height="40" as="geometry" />
        </mxCell>
        <mxCell id="BLw7UrRm_ujUXIKyPQ4O-45" value="" style="edgeStyle=orthogonalEdgeStyle;rounded=0;orthogonalLoop=1;jettySize=auto;html=1;endArrow=none;startFill=0;startArrow=none;" edge="1" parent="1" source="BLw7UrRm_ujUXIKyPQ4O-41" target="BLw7UrRm_ujUXIKyPQ4O-38">
          <mxGeometry relative="1" as="geometry">
            <Array as="points">
              <mxPoint x="735" y="150" />
              <mxPoint x="735" y="150" />
            </Array>
          </mxGeometry>
        </mxCell>
        <mxCell id="BLw7UrRm_ujUXIKyPQ4O-41" value="categoryDesc" style="ellipse;whiteSpace=wrap;html=1;align=center;" vertex="1" parent="1">
          <mxGeometry x="735" y="130" width="100" height="40" as="geometry" />
        </mxCell>
        <mxCell id="BLw7UrRm_ujUXIKyPQ4O-46" value="Images" style="whiteSpace=wrap;html=1;align=center;" vertex="1" parent="1">
          <mxGeometry x="525" y="290" width="100" height="40" as="geometry" />
        </mxCell>
        <mxCell id="BLw7UrRm_ujUXIKyPQ4O-69" style="edgeStyle=orthogonalEdgeStyle;rounded=0;orthogonalLoop=1;jettySize=auto;html=1;exitX=0;exitY=0.5;exitDx=0;exitDy=0;entryX=0.5;entryY=0;entryDx=0;entryDy=0;endArrow=none;startFill=0;" edge="1" parent="1" source="BLw7UrRm_ujUXIKyPQ4O-47" target="BLw7UrRm_ujUXIKyPQ4O-46">
          <mxGeometry relative="1" as="geometry" />
        </mxCell>
        <mxCell id="BLw7UrRm_ujUXIKyPQ4O-47" value="imageID" style="ellipse;whiteSpace=wrap;html=1;align=center;" vertex="1" parent="1">
          <mxGeometry x="560" y="240" width="100" height="40" as="geometry" />
        </mxCell>
        <mxCell id="BLw7UrRm_ujUXIKyPQ4O-228" style="edgeStyle=orthogonalEdgeStyle;rounded=0;orthogonalLoop=1;jettySize=auto;html=1;exitX=0;exitY=0.5;exitDx=0;exitDy=0;entryX=0.75;entryY=1;entryDx=0;entryDy=0;" edge="1" parent="1" source="BLw7UrRm_ujUXIKyPQ4O-48" target="BLw7UrRm_ujUXIKyPQ4O-46">
          <mxGeometry relative="1" as="geometry" />
        </mxCell>
        <mxCell id="BLw7UrRm_ujUXIKyPQ4O-48" value="productID" style="ellipse;whiteSpace=wrap;html=1;align=center;" vertex="1" parent="1">
          <mxGeometry x="645" y="320" width="100" height="40" as="geometry" />
        </mxCell>
        <mxCell id="BLw7UrRm_ujUXIKyPQ4O-71" style="edgeStyle=orthogonalEdgeStyle;rounded=0;orthogonalLoop=1;jettySize=auto;html=1;exitX=0;exitY=0.5;exitDx=0;exitDy=0;entryX=1;entryY=0.5;entryDx=0;entryDy=0;endArrow=none;startFill=0;" edge="1" parent="1" source="BLw7UrRm_ujUXIKyPQ4O-49" target="BLw7UrRm_ujUXIKyPQ4O-46">
          <mxGeometry relative="1" as="geometry" />
        </mxCell>
        <mxCell id="BLw7UrRm_ujUXIKyPQ4O-49" value="imageUrl" style="ellipse;whiteSpace=wrap;html=1;align=center;" vertex="1" parent="1">
          <mxGeometry x="645" y="270" width="100" height="40" as="geometry" />
        </mxCell>
        <mxCell id="BLw7UrRm_ujUXIKyPQ4O-50" value="Order" style="whiteSpace=wrap;html=1;align=center;" vertex="1" parent="1">
          <mxGeometry x="170" y="490" width="100" height="40" as="geometry" />
        </mxCell>
        <mxCell id="BLw7UrRm_ujUXIKyPQ4O-216" style="edgeStyle=orthogonalEdgeStyle;rounded=0;orthogonalLoop=1;jettySize=auto;html=1;exitX=1;exitY=0.5;exitDx=0;exitDy=0;entryX=0.25;entryY=0;entryDx=0;entryDy=0;endArrow=none;startFill=0;" edge="1" parent="1" source="BLw7UrRm_ujUXIKyPQ4O-51" target="BLw7UrRm_ujUXIKyPQ4O-50">
          <mxGeometry relative="1" as="geometry" />
        </mxCell>
        <mxCell id="BLw7UrRm_ujUXIKyPQ4O-51" value="orderID" style="ellipse;whiteSpace=wrap;html=1;align=center;" vertex="1" parent="1">
          <mxGeometry x="60" y="410" width="100" height="40" as="geometry" />
        </mxCell>
        <mxCell id="BLw7UrRm_ujUXIKyPQ4O-213" style="edgeStyle=orthogonalEdgeStyle;rounded=0;orthogonalLoop=1;jettySize=auto;html=1;exitX=0.5;exitY=0;exitDx=0;exitDy=0;entryX=0.25;entryY=1;entryDx=0;entryDy=0;endArrow=none;startFill=0;" edge="1" parent="1" source="BLw7UrRm_ujUXIKyPQ4O-52" target="BLw7UrRm_ujUXIKyPQ4O-189">
          <mxGeometry relative="1" as="geometry" />
        </mxCell>
        <mxCell id="BLw7UrRm_ujUXIKyPQ4O-52" value="productID" style="ellipse;whiteSpace=wrap;html=1;align=center;" vertex="1" parent="1">
          <mxGeometry x="580" y="590" width="100" height="40" as="geometry" />
        </mxCell>
        <mxCell id="BLw7UrRm_ujUXIKyPQ4O-62" style="edgeStyle=orthogonalEdgeStyle;rounded=0;orthogonalLoop=1;jettySize=auto;html=1;exitX=1;exitY=0;exitDx=0;exitDy=0;entryX=0.25;entryY=1;entryDx=0;entryDy=0;endArrow=none;startFill=0;" edge="1" parent="1" source="BLw7UrRm_ujUXIKyPQ4O-53" target="BLw7UrRm_ujUXIKyPQ4O-50">
          <mxGeometry relative="1" as="geometry">
            <Array as="points">
              <mxPoint x="155" y="550" />
              <mxPoint x="195" y="550" />
            </Array>
          </mxGeometry>
        </mxCell>
        <mxCell id="BLw7UrRm_ujUXIKyPQ4O-53" value="orderStatus" style="ellipse;whiteSpace=wrap;html=1;align=center;" vertex="1" parent="1">
          <mxGeometry x="70" y="550" width="100" height="40" as="geometry" />
        </mxCell>
        <mxCell id="BLw7UrRm_ujUXIKyPQ4O-60" style="edgeStyle=orthogonalEdgeStyle;rounded=0;orthogonalLoop=1;jettySize=auto;html=1;exitX=1;exitY=0.5;exitDx=0;exitDy=0;entryX=0;entryY=0.5;entryDx=0;entryDy=0;endArrow=none;startFill=0;" edge="1" parent="1" target="BLw7UrRm_ujUXIKyPQ4O-50">
          <mxGeometry relative="1" as="geometry">
            <mxPoint x="110" y="530" as="sourcePoint" />
          </mxGeometry>
        </mxCell>
        <mxCell id="BLw7UrRm_ujUXIKyPQ4O-55" value="orderDate" style="ellipse;whiteSpace=wrap;html=1;align=center;" vertex="1" parent="1">
          <mxGeometry x="10" y="510" width="100" height="40" as="geometry" />
        </mxCell>
        <mxCell id="BLw7UrRm_ujUXIKyPQ4O-59" style="edgeStyle=orthogonalEdgeStyle;rounded=0;orthogonalLoop=1;jettySize=auto;html=1;exitX=1;exitY=0.5;exitDx=0;exitDy=0;entryX=0;entryY=0.25;entryDx=0;entryDy=0;endArrow=none;startFill=0;" edge="1" parent="1" target="BLw7UrRm_ujUXIKyPQ4O-50">
          <mxGeometry relative="1" as="geometry">
            <mxPoint x="110" y="480" as="sourcePoint" />
          </mxGeometry>
        </mxCell>
        <mxCell id="BLw7UrRm_ujUXIKyPQ4O-56" value="deleiverDate" style="ellipse;whiteSpace=wrap;html=1;align=center;" vertex="1" parent="1">
          <mxGeometry x="10" y="460" width="100" height="40" as="geometry" />
        </mxCell>
        <mxCell id="BLw7UrRm_ujUXIKyPQ4O-72" value="ShippingAddress" style="whiteSpace=wrap;html=1;align=center;" vertex="1" parent="1">
          <mxGeometry x="150" y="690" width="100" height="40" as="geometry" />
        </mxCell>
        <mxCell id="BLw7UrRm_ujUXIKyPQ4O-254" style="edgeStyle=orthogonalEdgeStyle;rounded=0;orthogonalLoop=1;jettySize=auto;html=1;exitX=1;exitY=0;exitDx=0;exitDy=0;entryX=0.25;entryY=1;entryDx=0;entryDy=0;endArrow=none;startFill=0;" edge="1" parent="1" source="BLw7UrRm_ujUXIKyPQ4O-73" target="BLw7UrRm_ujUXIKyPQ4O-72">
          <mxGeometry relative="1" as="geometry">
            <Array as="points">
              <mxPoint x="170" y="746" />
              <mxPoint x="170" y="750" />
              <mxPoint x="175" y="750" />
            </Array>
          </mxGeometry>
        </mxCell>
        <mxCell id="BLw7UrRm_ujUXIKyPQ4O-73" value="addressID" style="ellipse;whiteSpace=wrap;html=1;align=center;" vertex="1" parent="1">
          <mxGeometry x="50" y="740" width="100" height="40" as="geometry" />
        </mxCell>
        <mxCell id="BLw7UrRm_ujUXIKyPQ4O-186" style="edgeStyle=orthogonalEdgeStyle;rounded=0;orthogonalLoop=1;jettySize=auto;html=1;exitX=1;exitY=0.5;exitDx=0;exitDy=0;entryX=0;entryY=0.5;entryDx=0;entryDy=0;endArrow=none;startFill=0;" edge="1" parent="1" source="BLw7UrRm_ujUXIKyPQ4O-74" target="BLw7UrRm_ujUXIKyPQ4O-72">
          <mxGeometry relative="1" as="geometry" />
        </mxCell>
        <mxCell id="BLw7UrRm_ujUXIKyPQ4O-74" value="userID" style="ellipse;whiteSpace=wrap;html=1;align=center;" vertex="1" parent="1">
          <mxGeometry x="15" y="690" width="100" height="40" as="geometry" />
        </mxCell>
        <mxCell id="BLw7UrRm_ujUXIKyPQ4O-253" style="edgeStyle=orthogonalEdgeStyle;rounded=0;orthogonalLoop=1;jettySize=auto;html=1;exitX=1;exitY=1;exitDx=0;exitDy=0;entryX=0.25;entryY=0;entryDx=0;entryDy=0;endArrow=none;startFill=0;" edge="1" parent="1" source="BLw7UrRm_ujUXIKyPQ4O-76" target="BLw7UrRm_ujUXIKyPQ4O-72">
          <mxGeometry relative="1" as="geometry" />
        </mxCell>
        <mxCell id="BLw7UrRm_ujUXIKyPQ4O-76" value="address" style="ellipse;whiteSpace=wrap;html=1;align=center;" vertex="1" parent="1">
          <mxGeometry x="30" y="640" width="100" height="40" as="geometry" />
        </mxCell>
        <mxCell id="BLw7UrRm_ujUXIKyPQ4O-175" style="edgeStyle=orthogonalEdgeStyle;rounded=0;orthogonalLoop=1;jettySize=auto;html=1;exitX=1;exitY=0.5;exitDx=0;exitDy=0;entryX=0;entryY=0.75;entryDx=0;entryDy=0;endArrow=none;startFill=0;" edge="1" parent="1" source="BLw7UrRm_ujUXIKyPQ4O-80" target="BLw7UrRm_ujUXIKyPQ4O-125">
          <mxGeometry relative="1" as="geometry" />
        </mxCell>
        <mxCell id="BLw7UrRm_ujUXIKyPQ4O-80" value="shopperID" style="ellipse;whiteSpace=wrap;html=1;align=center;flipH=1;" vertex="1" parent="1">
          <mxGeometry x="10" y="910" width="100" height="40" as="geometry" />
        </mxCell>
        <mxCell id="BLw7UrRm_ujUXIKyPQ4O-173" style="edgeStyle=orthogonalEdgeStyle;rounded=0;orthogonalLoop=1;jettySize=auto;html=1;exitX=1;exitY=1;exitDx=0;exitDy=0;entryX=0.25;entryY=0;entryDx=0;entryDy=0;endArrow=none;startFill=0;" edge="1" parent="1" source="BLw7UrRm_ujUXIKyPQ4O-82" target="BLw7UrRm_ujUXIKyPQ4O-125">
          <mxGeometry relative="1" as="geometry" />
        </mxCell>
        <mxCell id="BLw7UrRm_ujUXIKyPQ4O-82" value="email" style="ellipse;whiteSpace=wrap;html=1;align=center;flipH=1;" vertex="1" parent="1">
          <mxGeometry x="80" y="810" width="100" height="40" as="geometry" />
        </mxCell>
        <mxCell id="BLw7UrRm_ujUXIKyPQ4O-178" style="edgeStyle=orthogonalEdgeStyle;rounded=0;orthogonalLoop=1;jettySize=auto;html=1;exitX=1;exitY=0;exitDx=0;exitDy=0;entryX=0.25;entryY=1;entryDx=0;entryDy=0;endArrow=none;startFill=0;" edge="1" parent="1" source="BLw7UrRm_ujUXIKyPQ4O-83" target="BLw7UrRm_ujUXIKyPQ4O-125">
          <mxGeometry relative="1" as="geometry" />
        </mxCell>
        <mxCell id="BLw7UrRm_ujUXIKyPQ4O-83" value="phoneNumber" style="ellipse;whiteSpace=wrap;html=1;align=center;flipH=1;" vertex="1" parent="1">
          <mxGeometry x="30" y="950" width="100" height="40" as="geometry" />
        </mxCell>
        <mxCell id="BLw7UrRm_ujUXIKyPQ4O-174" style="edgeStyle=orthogonalEdgeStyle;rounded=0;orthogonalLoop=1;jettySize=auto;html=1;exitX=0.5;exitY=0;exitDx=0;exitDy=0;entryX=0.5;entryY=1;entryDx=0;entryDy=0;endArrow=none;startFill=0;" edge="1" parent="1" source="BLw7UrRm_ujUXIKyPQ4O-84" target="BLw7UrRm_ujUXIKyPQ4O-125">
          <mxGeometry relative="1" as="geometry">
            <Array as="points">
              <mxPoint x="200" y="980" />
            </Array>
          </mxGeometry>
        </mxCell>
        <mxCell id="BLw7UrRm_ujUXIKyPQ4O-84" value="password" style="ellipse;whiteSpace=wrap;html=1;align=center;flipH=1;" vertex="1" parent="1">
          <mxGeometry x="120" y="980" width="100" height="40" as="geometry" />
        </mxCell>
        <mxCell id="BLw7UrRm_ujUXIKyPQ4O-172" style="edgeStyle=orthogonalEdgeStyle;rounded=0;orthogonalLoop=1;jettySize=auto;html=1;exitX=0.5;exitY=1;exitDx=0;exitDy=0;entryX=0.5;entryY=0;entryDx=0;entryDy=0;endArrow=none;startFill=0;" edge="1" parent="1" source="BLw7UrRm_ujUXIKyPQ4O-85" target="BLw7UrRm_ujUXIKyPQ4O-125">
          <mxGeometry relative="1" as="geometry" />
        </mxCell>
        <mxCell id="BLw7UrRm_ujUXIKyPQ4O-85" value="gender" style="ellipse;whiteSpace=wrap;html=1;align=center;flipH=1;" vertex="1" parent="1">
          <mxGeometry x="185" y="800" width="100" height="40" as="geometry" />
        </mxCell>
        <mxCell id="BLw7UrRm_ujUXIKyPQ4O-105" value="is of" style="shape=rhombus;perimeter=rhombusPerimeter;whiteSpace=wrap;html=1;align=center;" vertex="1" parent="1">
          <mxGeometry x="405" y="80" width="120" height="60" as="geometry" />
        </mxCell>
        <mxCell id="BLw7UrRm_ujUXIKyPQ4O-109" value="" style="endArrow=none;html=1;rounded=0;exitX=1;exitY=0.5;exitDx=0;exitDy=0;entryX=0;entryY=0.5;entryDx=0;entryDy=0;" edge="1" parent="1" source="BLw7UrRm_ujUXIKyPQ4O-105" target="BLw7UrRm_ujUXIKyPQ4O-38">
          <mxGeometry relative="1" as="geometry">
            <mxPoint x="405" y="190" as="sourcePoint" />
            <mxPoint x="565" y="190" as="targetPoint" />
            <Array as="points">
              <mxPoint x="565" y="130" />
            </Array>
          </mxGeometry>
        </mxCell>
        <mxCell id="BLw7UrRm_ujUXIKyPQ4O-110" value="N" style="resizable=0;html=1;whiteSpace=wrap;align=right;verticalAlign=bottom;" connectable="0" vertex="1" parent="BLw7UrRm_ujUXIKyPQ4O-109">
          <mxGeometry x="1" relative="1" as="geometry" />
        </mxCell>
        <mxCell id="BLw7UrRm_ujUXIKyPQ4O-115" value="" style="endArrow=none;html=1;rounded=0;exitX=0;exitY=0.5;exitDx=0;exitDy=0;entryX=1;entryY=0;entryDx=0;entryDy=0;" edge="1" parent="1" source="BLw7UrRm_ujUXIKyPQ4O-105" target="BLw7UrRm_ujUXIKyPQ4O-12">
          <mxGeometry relative="1" as="geometry">
            <mxPoint x="405" y="190" as="sourcePoint" />
            <mxPoint x="415" y="220" as="targetPoint" />
          </mxGeometry>
        </mxCell>
        <mxCell id="BLw7UrRm_ujUXIKyPQ4O-116" value="N" style="resizable=0;html=1;whiteSpace=wrap;align=right;verticalAlign=bottom;" connectable="0" vertex="1" parent="BLw7UrRm_ujUXIKyPQ4O-115">
          <mxGeometry x="1" relative="1" as="geometry" />
        </mxCell>
        <mxCell id="BLw7UrRm_ujUXIKyPQ4O-118" value="has" style="shape=rhombus;perimeter=rhombusPerimeter;whiteSpace=wrap;html=1;align=center;" vertex="1" parent="1">
          <mxGeometry x="405" y="150" width="120" height="60" as="geometry" />
        </mxCell>
        <mxCell id="BLw7UrRm_ujUXIKyPQ4O-119" value="" style="endArrow=none;html=1;rounded=0;entryX=0;entryY=0;entryDx=0;entryDy=0;exitX=1;exitY=0.5;exitDx=0;exitDy=0;" edge="1" parent="1" source="BLw7UrRm_ujUXIKyPQ4O-118" target="BLw7UrRm_ujUXIKyPQ4O-46">
          <mxGeometry relative="1" as="geometry">
            <mxPoint x="345" y="280" as="sourcePoint" />
            <mxPoint x="505" y="280" as="targetPoint" />
          </mxGeometry>
        </mxCell>
        <mxCell id="BLw7UrRm_ujUXIKyPQ4O-120" value="N" style="resizable=0;html=1;whiteSpace=wrap;align=right;verticalAlign=bottom;" connectable="0" vertex="1" parent="BLw7UrRm_ujUXIKyPQ4O-119">
          <mxGeometry x="1" relative="1" as="geometry" />
        </mxCell>
        <mxCell id="BLw7UrRm_ujUXIKyPQ4O-121" value="" style="endArrow=none;html=1;rounded=0;exitX=0;exitY=0.5;exitDx=0;exitDy=0;entryX=1;entryY=0.5;entryDx=0;entryDy=0;" edge="1" parent="1" source="BLw7UrRm_ujUXIKyPQ4O-118" target="BLw7UrRm_ujUXIKyPQ4O-12">
          <mxGeometry relative="1" as="geometry">
            <mxPoint x="345" y="280" as="sourcePoint" />
            <mxPoint x="335" y="310" as="targetPoint" />
          </mxGeometry>
        </mxCell>
        <mxCell id="BLw7UrRm_ujUXIKyPQ4O-122" value="1" style="resizable=0;html=1;whiteSpace=wrap;align=right;verticalAlign=bottom;" connectable="0" vertex="1" parent="BLw7UrRm_ujUXIKyPQ4O-121">
          <mxGeometry x="1" relative="1" as="geometry" />
        </mxCell>
        <mxCell id="BLw7UrRm_ujUXIKyPQ4O-125" value="user" style="whiteSpace=wrap;html=1;align=center;" vertex="1" parent="1">
          <mxGeometry x="150" y="880" width="100" height="40" as="geometry" />
        </mxCell>
        <mxCell id="BLw7UrRm_ujUXIKyPQ4O-134" value="places" style="shape=rhombus;perimeter=rhombusPerimeter;whiteSpace=wrap;html=1;align=center;" vertex="1" parent="1">
          <mxGeometry x="365" y="590" width="120" height="60" as="geometry" />
        </mxCell>
        <mxCell id="BLw7UrRm_ujUXIKyPQ4O-139" value="" style="endArrow=none;html=1;rounded=0;entryX=1;entryY=1;entryDx=0;entryDy=0;exitX=0.5;exitY=0;exitDx=0;exitDy=0;" edge="1" parent="1" source="BLw7UrRm_ujUXIKyPQ4O-134" target="BLw7UrRm_ujUXIKyPQ4O-50">
          <mxGeometry relative="1" as="geometry">
            <mxPoint x="345" y="500" as="sourcePoint" />
            <mxPoint x="505" y="500" as="targetPoint" />
            <Array as="points">
              <mxPoint x="425" y="530" />
            </Array>
          </mxGeometry>
        </mxCell>
        <mxCell id="BLw7UrRm_ujUXIKyPQ4O-140" value="N" style="resizable=0;html=1;whiteSpace=wrap;align=right;verticalAlign=bottom;" connectable="0" vertex="1" parent="BLw7UrRm_ujUXIKyPQ4O-139">
          <mxGeometry x="1" relative="1" as="geometry" />
        </mxCell>
        <mxCell id="BLw7UrRm_ujUXIKyPQ4O-144" value="has" style="shape=rhombus;perimeter=rhombusPerimeter;whiteSpace=wrap;html=1;align=center;" vertex="1" parent="1">
          <mxGeometry x="300" y="310" width="120" height="60" as="geometry" />
        </mxCell>
        <mxCell id="BLw7UrRm_ujUXIKyPQ4O-145" value="" style="endArrow=none;html=1;rounded=0;entryX=1;entryY=0;entryDx=0;entryDy=0;exitX=0.5;exitY=1;exitDx=0;exitDy=0;" edge="1" parent="1" source="BLw7UrRm_ujUXIKyPQ4O-144" target="BLw7UrRm_ujUXIKyPQ4O-50">
          <mxGeometry relative="1" as="geometry">
            <mxPoint x="345" y="430" as="sourcePoint" />
            <mxPoint x="505" y="430" as="targetPoint" />
            <Array as="points">
              <mxPoint x="360" y="490" />
            </Array>
          </mxGeometry>
        </mxCell>
        <mxCell id="BLw7UrRm_ujUXIKyPQ4O-146" value="N" style="resizable=0;html=1;whiteSpace=wrap;align=right;verticalAlign=bottom;" connectable="0" vertex="1" parent="BLw7UrRm_ujUXIKyPQ4O-145">
          <mxGeometry x="1" relative="1" as="geometry" />
        </mxCell>
        <mxCell id="BLw7UrRm_ujUXIKyPQ4O-147" value="" style="endArrow=none;html=1;rounded=0;entryX=1;entryY=1;entryDx=0;entryDy=0;exitX=0.5;exitY=0;exitDx=0;exitDy=0;" edge="1" parent="1" source="BLw7UrRm_ujUXIKyPQ4O-144" target="BLw7UrRm_ujUXIKyPQ4O-12">
          <mxGeometry relative="1" as="geometry">
            <mxPoint x="345" y="430" as="sourcePoint" />
            <mxPoint x="505" y="430" as="targetPoint" />
            <Array as="points">
              <mxPoint x="360" y="190" />
            </Array>
          </mxGeometry>
        </mxCell>
        <mxCell id="BLw7UrRm_ujUXIKyPQ4O-148" value="N" style="resizable=0;html=1;whiteSpace=wrap;align=right;verticalAlign=bottom;" connectable="0" vertex="1" parent="BLw7UrRm_ujUXIKyPQ4O-147">
          <mxGeometry x="1" relative="1" as="geometry" />
        </mxCell>
        <mxCell id="BLw7UrRm_ujUXIKyPQ4O-151" value="has" style="shape=rhombus;perimeter=rhombusPerimeter;whiteSpace=wrap;html=1;align=center;" vertex="1" parent="1">
          <mxGeometry x="285" y="750" width="120" height="60" as="geometry" />
        </mxCell>
        <mxCell id="BLw7UrRm_ujUXIKyPQ4O-180" value="" style="endArrow=none;html=1;rounded=0;entryX=1;entryY=0;entryDx=0;entryDy=0;exitX=0.5;exitY=1;exitDx=0;exitDy=0;" edge="1" parent="1" source="BLw7UrRm_ujUXIKyPQ4O-151" target="BLw7UrRm_ujUXIKyPQ4O-125">
          <mxGeometry relative="1" as="geometry">
            <mxPoint x="400" y="590" as="sourcePoint" />
            <mxPoint x="560" y="590" as="targetPoint" />
            <Array as="points">
              <mxPoint x="345" y="880" />
            </Array>
          </mxGeometry>
        </mxCell>
        <mxCell id="BLw7UrRm_ujUXIKyPQ4O-181" value="1" style="resizable=0;html=1;whiteSpace=wrap;align=right;verticalAlign=bottom;" connectable="0" vertex="1" parent="BLw7UrRm_ujUXIKyPQ4O-180">
          <mxGeometry x="1" relative="1" as="geometry" />
        </mxCell>
        <mxCell id="BLw7UrRm_ujUXIKyPQ4O-182" value="" style="endArrow=none;html=1;rounded=0;entryX=1;entryY=1;entryDx=0;entryDy=0;exitX=0.5;exitY=0;exitDx=0;exitDy=0;" edge="1" parent="1" source="BLw7UrRm_ujUXIKyPQ4O-151" target="BLw7UrRm_ujUXIKyPQ4O-72">
          <mxGeometry relative="1" as="geometry">
            <mxPoint x="400" y="590" as="sourcePoint" />
            <mxPoint x="560" y="590" as="targetPoint" />
            <Array as="points">
              <mxPoint x="345" y="730" />
            </Array>
          </mxGeometry>
        </mxCell>
        <mxCell id="BLw7UrRm_ujUXIKyPQ4O-183" value="N" style="resizable=0;html=1;whiteSpace=wrap;align=right;verticalAlign=bottom;" connectable="0" vertex="1" parent="BLw7UrRm_ujUXIKyPQ4O-182">
          <mxGeometry x="1" relative="1" as="geometry" />
        </mxCell>
        <mxCell id="BLw7UrRm_ujUXIKyPQ4O-187" value="" style="endArrow=none;html=1;rounded=0;entryX=1;entryY=0.5;entryDx=0;entryDy=0;exitX=0.5;exitY=1;exitDx=0;exitDy=0;" edge="1" parent="1" source="BLw7UrRm_ujUXIKyPQ4O-134" target="BLw7UrRm_ujUXIKyPQ4O-125">
          <mxGeometry relative="1" as="geometry">
            <mxPoint x="180" y="760" as="sourcePoint" />
            <mxPoint x="340" y="760" as="targetPoint" />
            <Array as="points">
              <mxPoint x="425" y="900" />
            </Array>
          </mxGeometry>
        </mxCell>
        <mxCell id="BLw7UrRm_ujUXIKyPQ4O-188" value="1" style="resizable=0;html=1;whiteSpace=wrap;align=right;verticalAlign=bottom;" connectable="0" vertex="1" parent="BLw7UrRm_ujUXIKyPQ4O-187">
          <mxGeometry x="1" relative="1" as="geometry" />
        </mxCell>
        <mxCell id="BLw7UrRm_ujUXIKyPQ4O-189" value="orderItem" style="whiteSpace=wrap;html=1;align=center;" vertex="1" parent="1">
          <mxGeometry x="625" y="490" width="100" height="40" as="geometry" />
        </mxCell>
        <mxCell id="BLw7UrRm_ujUXIKyPQ4O-203" style="edgeStyle=orthogonalEdgeStyle;rounded=0;orthogonalLoop=1;jettySize=auto;html=1;exitX=0.5;exitY=1;exitDx=0;exitDy=0;entryX=0.25;entryY=0;entryDx=0;entryDy=0;endArrow=none;startFill=0;" edge="1" parent="1" source="BLw7UrRm_ujUXIKyPQ4O-190" target="BLw7UrRm_ujUXIKyPQ4O-189">
          <mxGeometry relative="1" as="geometry" />
        </mxCell>
        <mxCell id="BLw7UrRm_ujUXIKyPQ4O-190" value="orderItemID" style="ellipse;whiteSpace=wrap;html=1;align=center;" vertex="1" parent="1">
          <mxGeometry x="545" y="410" width="100" height="40" as="geometry" />
        </mxCell>
        <mxCell id="BLw7UrRm_ujUXIKyPQ4O-212" style="edgeStyle=orthogonalEdgeStyle;rounded=0;orthogonalLoop=1;jettySize=auto;html=1;exitX=0.5;exitY=0;exitDx=0;exitDy=0;entryX=0.5;entryY=1;entryDx=0;entryDy=0;endArrow=none;startFill=0;" edge="1" parent="1" source="BLw7UrRm_ujUXIKyPQ4O-191" target="BLw7UrRm_ujUXIKyPQ4O-189">
          <mxGeometry relative="1" as="geometry" />
        </mxCell>
        <mxCell id="BLw7UrRm_ujUXIKyPQ4O-191" value="orderItemStatus" style="ellipse;whiteSpace=wrap;html=1;align=center;" vertex="1" parent="1">
          <mxGeometry x="685" y="580" width="100" height="40" as="geometry" />
        </mxCell>
        <mxCell id="BLw7UrRm_ujUXIKyPQ4O-205" style="edgeStyle=orthogonalEdgeStyle;rounded=0;orthogonalLoop=1;jettySize=auto;html=1;exitX=0;exitY=1;exitDx=0;exitDy=0;entryX=0.75;entryY=0;entryDx=0;entryDy=0;endArrow=none;startFill=0;" edge="1" parent="1" source="BLw7UrRm_ujUXIKyPQ4O-192" target="BLw7UrRm_ujUXIKyPQ4O-189">
          <mxGeometry relative="1" as="geometry" />
        </mxCell>
        <mxCell id="BLw7UrRm_ujUXIKyPQ4O-192" value="orderItmeName" style="ellipse;whiteSpace=wrap;html=1;align=center;" vertex="1" parent="1">
          <mxGeometry x="660" y="420" width="100" height="40" as="geometry" />
        </mxCell>
        <mxCell id="BLw7UrRm_ujUXIKyPQ4O-193" value="" style="endArrow=none;html=1;rounded=0;entryX=1;entryY=0.25;entryDx=0;entryDy=0;exitX=0;exitY=0.5;exitDx=0;exitDy=0;" edge="1" parent="1" source="BLw7UrRm_ujUXIKyPQ4O-195" target="BLw7UrRm_ujUXIKyPQ4O-50">
          <mxGeometry relative="1" as="geometry">
            <mxPoint x="510" y="510" as="sourcePoint" />
            <mxPoint x="460" y="430" as="targetPoint" />
            <Array as="points">
              <mxPoint x="460" y="500" />
            </Array>
          </mxGeometry>
        </mxCell>
        <mxCell id="BLw7UrRm_ujUXIKyPQ4O-194" value="1" style="resizable=0;html=1;whiteSpace=wrap;align=right;verticalAlign=bottom;" connectable="0" vertex="1" parent="BLw7UrRm_ujUXIKyPQ4O-193">
          <mxGeometry x="1" relative="1" as="geometry" />
        </mxCell>
        <mxCell id="BLw7UrRm_ujUXIKyPQ4O-195" value="has" style="shape=rhombus;perimeter=rhombusPerimeter;whiteSpace=wrap;html=1;align=center;" vertex="1" parent="1">
          <mxGeometry x="460" y="480" width="120" height="60" as="geometry" />
        </mxCell>
        <mxCell id="BLw7UrRm_ujUXIKyPQ4O-196" value="" style="endArrow=none;html=1;rounded=0;entryX=0;entryY=0.5;entryDx=0;entryDy=0;exitX=1;exitY=0.5;exitDx=0;exitDy=0;" edge="1" parent="1" source="BLw7UrRm_ujUXIKyPQ4O-195" target="BLw7UrRm_ujUXIKyPQ4O-189">
          <mxGeometry relative="1" as="geometry">
            <mxPoint x="300" y="580" as="sourcePoint" />
            <mxPoint x="460" y="580" as="targetPoint" />
          </mxGeometry>
        </mxCell>
        <mxCell id="BLw7UrRm_ujUXIKyPQ4O-197" value="N" style="resizable=0;html=1;whiteSpace=wrap;align=right;verticalAlign=bottom;" connectable="0" vertex="1" parent="BLw7UrRm_ujUXIKyPQ4O-196">
          <mxGeometry x="1" relative="1" as="geometry" />
        </mxCell>
        <mxCell id="BLw7UrRm_ujUXIKyPQ4O-215" style="edgeStyle=orthogonalEdgeStyle;rounded=0;orthogonalLoop=1;jettySize=auto;html=1;exitX=0;exitY=1;exitDx=0;exitDy=0;entryX=1;entryY=0.25;entryDx=0;entryDy=0;endArrow=none;startFill=0;" edge="1" parent="1" source="BLw7UrRm_ujUXIKyPQ4O-198" target="BLw7UrRm_ujUXIKyPQ4O-189">
          <mxGeometry relative="1" as="geometry" />
        </mxCell>
        <mxCell id="BLw7UrRm_ujUXIKyPQ4O-198" value="orderID" style="ellipse;whiteSpace=wrap;html=1;align=center;" vertex="1" parent="1">
          <mxGeometry x="745" y="460" width="100" height="40" as="geometry" />
        </mxCell>
        <mxCell id="BLw7UrRm_ujUXIKyPQ4O-214" style="edgeStyle=orthogonalEdgeStyle;rounded=0;orthogonalLoop=1;jettySize=auto;html=1;exitX=0;exitY=0;exitDx=0;exitDy=0;entryX=1;entryY=0.75;entryDx=0;entryDy=0;endArrow=none;startFill=0;" edge="1" parent="1" source="BLw7UrRm_ujUXIKyPQ4O-199" target="BLw7UrRm_ujUXIKyPQ4O-189">
          <mxGeometry relative="1" as="geometry" />
        </mxCell>
        <mxCell id="BLw7UrRm_ujUXIKyPQ4O-199" value="orderItemQuantity" style="ellipse;whiteSpace=wrap;html=1;align=center;" vertex="1" parent="1">
          <mxGeometry x="745" y="520" width="100" height="40" as="geometry" />
        </mxCell>
        <mxCell id="BLw7UrRm_ujUXIKyPQ4O-219" style="edgeStyle=orthogonalEdgeStyle;rounded=0;orthogonalLoop=1;jettySize=auto;html=1;exitX=0.5;exitY=0;exitDx=0;exitDy=0;entryX=0.75;entryY=1;entryDx=0;entryDy=0;endArrow=none;startFill=0;" edge="1" parent="1" source="BLw7UrRm_ujUXIKyPQ4O-217" target="BLw7UrRm_ujUXIKyPQ4O-125">
          <mxGeometry relative="1" as="geometry" />
        </mxCell>
        <mxCell id="BLw7UrRm_ujUXIKyPQ4O-217" value="userRole" style="ellipse;whiteSpace=wrap;html=1;align=center;" vertex="1" parent="1">
          <mxGeometry x="220" y="950" width="100" height="40" as="geometry" />
        </mxCell>
        <mxCell id="BLw7UrRm_ujUXIKyPQ4O-226" style="edgeStyle=orthogonalEdgeStyle;rounded=0;orthogonalLoop=1;jettySize=auto;html=1;exitX=0.5;exitY=1;exitDx=0;exitDy=0;entryX=0.25;entryY=0;entryDx=0;entryDy=0;endArrow=none;startFill=0;" edge="1" parent="1" source="BLw7UrRm_ujUXIKyPQ4O-225" target="BLw7UrRm_ujUXIKyPQ4O-38">
          <mxGeometry relative="1" as="geometry" />
        </mxCell>
        <mxCell id="BLw7UrRm_ujUXIKyPQ4O-225" value="parentCategiryID" style="ellipse;whiteSpace=wrap;html=1;align=center;" vertex="1" parent="1">
          <mxGeometry x="570" y="40" width="100" height="40" as="geometry" />
        </mxCell>
        <mxCell id="BLw7UrRm_ujUXIKyPQ4O-229" style="edgeStyle=orthogonalEdgeStyle;rounded=0;orthogonalLoop=1;jettySize=auto;html=1;exitX=0;exitY=0;exitDx=0;exitDy=0;entryX=0.25;entryY=1;entryDx=0;entryDy=0;" edge="1" parent="1" source="BLw7UrRm_ujUXIKyPQ4O-227" target="BLw7UrRm_ujUXIKyPQ4O-46">
          <mxGeometry relative="1" as="geometry" />
        </mxCell>
        <mxCell id="BLw7UrRm_ujUXIKyPQ4O-241" value="" style="edgeStyle=orthogonalEdgeStyle;rounded=0;orthogonalLoop=1;jettySize=auto;html=1;" edge="1" parent="1" source="BLw7UrRm_ujUXIKyPQ4O-227" target="BLw7UrRm_ujUXIKyPQ4O-144">
          <mxGeometry relative="1" as="geometry" />
        </mxCell>
        <mxCell id="BLw7UrRm_ujUXIKyPQ4O-227" value="imageData" style="ellipse;whiteSpace=wrap;html=1;align=center;" vertex="1" parent="1">
          <mxGeometry x="535" y="360" width="100" height="40" as="geometry" />
        </mxCell>
        <mxCell id="BLw7UrRm_ujUXIKyPQ4O-235" value="views" style="shape=rhombus;perimeter=rhombusPerimeter;whiteSpace=wrap;html=1;align=center;" vertex="1" parent="1">
          <mxGeometry x="-130" y="450" width="120" height="60" as="geometry" />
        </mxCell>
        <mxCell id="BLw7UrRm_ujUXIKyPQ4O-239" value="" style="endArrow=none;html=1;rounded=0;entryX=0;entryY=0.5;entryDx=0;entryDy=0;exitX=0.5;exitY=1;exitDx=0;exitDy=0;" edge="1" parent="1" source="BLw7UrRm_ujUXIKyPQ4O-235" target="BLw7UrRm_ujUXIKyPQ4O-125">
          <mxGeometry relative="1" as="geometry">
            <mxPoint x="-50" y="900" as="sourcePoint" />
            <mxPoint x="180" y="980" as="targetPoint" />
            <Array as="points">
              <mxPoint x="-70" y="900" />
            </Array>
          </mxGeometry>
        </mxCell>
        <mxCell id="BLw7UrRm_ujUXIKyPQ4O-240" value="N" style="resizable=0;html=1;whiteSpace=wrap;align=right;verticalAlign=bottom;" connectable="0" vertex="1" parent="BLw7UrRm_ujUXIKyPQ4O-239">
          <mxGeometry x="1" relative="1" as="geometry" />
        </mxCell>
        <mxCell id="BLw7UrRm_ujUXIKyPQ4O-242" value="" style="endArrow=none;html=1;rounded=0;entryX=0;entryY=0.25;entryDx=0;entryDy=0;exitX=0.5;exitY=0;exitDx=0;exitDy=0;" edge="1" parent="1" source="BLw7UrRm_ujUXIKyPQ4O-235" target="BLw7UrRm_ujUXIKyPQ4O-12">
          <mxGeometry relative="1" as="geometry">
            <mxPoint x="70" y="280" as="sourcePoint" />
            <mxPoint x="230" y="280" as="targetPoint" />
            <Array as="points">
              <mxPoint x="-70" y="150" />
            </Array>
          </mxGeometry>
        </mxCell>
        <mxCell id="BLw7UrRm_ujUXIKyPQ4O-243" value="N" style="resizable=0;html=1;whiteSpace=wrap;align=right;verticalAlign=bottom;" connectable="0" vertex="1" parent="BLw7UrRm_ujUXIKyPQ4O-242">
          <mxGeometry x="1" relative="1" as="geometry" />
        </mxCell>
        <mxCell id="BLw7UrRm_ujUXIKyPQ4O-244" style="edgeStyle=orthogonalEdgeStyle;rounded=0;orthogonalLoop=1;jettySize=auto;html=1;exitX=1;exitY=1;exitDx=0;exitDy=0;entryX=0.166;entryY=0.03;entryDx=0;entryDy=0;entryPerimeter=0;" edge="1" parent="1" source="BLw7UrRm_ujUXIKyPQ4O-13" target="BLw7UrRm_ujUXIKyPQ4O-12">
          <mxGeometry relative="1" as="geometry" />
        </mxCell>
        <mxCell id="BLw7UrRm_ujUXIKyPQ4O-245" value="shippingAddres" style="ellipse;whiteSpace=wrap;html=1;align=center;" vertex="1" parent="1">
          <mxGeometry x="180" y="560" width="100" height="40" as="geometry" />
        </mxCell>
        <mxCell id="BLw7UrRm_ujUXIKyPQ4O-246" style="edgeStyle=orthogonalEdgeStyle;rounded=0;orthogonalLoop=1;jettySize=auto;html=1;exitX=0.5;exitY=0;exitDx=0;exitDy=0;entryX=0.601;entryY=0.977;entryDx=0;entryDy=0;entryPerimeter=0;endArrow=none;startFill=0;" edge="1" parent="1" source="BLw7UrRm_ujUXIKyPQ4O-245" target="BLw7UrRm_ujUXIKyPQ4O-50">
          <mxGeometry relative="1" as="geometry" />
        </mxCell>
        <mxCell id="BLw7UrRm_ujUXIKyPQ4O-252" style="edgeStyle=orthogonalEdgeStyle;rounded=0;orthogonalLoop=1;jettySize=auto;html=1;exitX=1;exitY=1;exitDx=0;exitDy=0;entryX=0.5;entryY=0;entryDx=0;entryDy=0;endArrow=none;startFill=0;" edge="1" parent="1" source="BLw7UrRm_ujUXIKyPQ4O-247" target="BLw7UrRm_ujUXIKyPQ4O-72">
          <mxGeometry relative="1" as="geometry" />
        </mxCell>
        <mxCell id="BLw7UrRm_ujUXIKyPQ4O-247" value="city" style="ellipse;whiteSpace=wrap;html=1;align=center;" vertex="1" parent="1">
          <mxGeometry x="115" y="610" width="100" height="40" as="geometry" />
        </mxCell>
        <mxCell id="BLw7UrRm_ujUXIKyPQ4O-251" style="edgeStyle=orthogonalEdgeStyle;rounded=0;orthogonalLoop=1;jettySize=auto;html=1;exitX=0;exitY=1;exitDx=0;exitDy=0;entryX=0.75;entryY=0;entryDx=0;entryDy=0;endArrow=none;startFill=0;" edge="1" parent="1" source="BLw7UrRm_ujUXIKyPQ4O-248" target="BLw7UrRm_ujUXIKyPQ4O-72">
          <mxGeometry relative="1" as="geometry" />
        </mxCell>
        <mxCell id="BLw7UrRm_ujUXIKyPQ4O-248" value="state" style="ellipse;whiteSpace=wrap;html=1;align=center;" vertex="1" parent="1">
          <mxGeometry x="220" y="630" width="100" height="40" as="geometry" />
        </mxCell>
        <mxCell id="BLw7UrRm_ujUXIKyPQ4O-250" style="edgeStyle=orthogonalEdgeStyle;rounded=0;orthogonalLoop=1;jettySize=auto;html=1;exitX=0.5;exitY=0;exitDx=0;exitDy=0;entryX=0.5;entryY=1;entryDx=0;entryDy=0;endArrow=none;startFill=0;" edge="1" parent="1" source="BLw7UrRm_ujUXIKyPQ4O-249" target="BLw7UrRm_ujUXIKyPQ4O-72">
          <mxGeometry relative="1" as="geometry" />
        </mxCell>
        <mxCell id="BLw7UrRm_ujUXIKyPQ4O-249" value="country" style="ellipse;whiteSpace=wrap;html=1;align=center;" vertex="1" parent="1">
          <mxGeometry x="160" y="750" width="100" height="40" as="geometry" />
        </mxCell>
        <mxCell id="BLw7UrRm_ujUXIKyPQ4O-255" value="payment" style="whiteSpace=wrap;html=1;align=center;" vertex="1" parent="1">
          <mxGeometry x="535" y="770" width="100" height="40" as="geometry" />
        </mxCell>
        <mxCell id="BLw7UrRm_ujUXIKyPQ4O-259" style="edgeStyle=orthogonalEdgeStyle;rounded=0;orthogonalLoop=1;jettySize=auto;html=1;exitX=0;exitY=0.5;exitDx=0;exitDy=0;entryX=1;entryY=0;entryDx=0;entryDy=0;endArrow=none;startFill=0;" edge="1" parent="1" source="BLw7UrRm_ujUXIKyPQ4O-258" target="BLw7UrRm_ujUXIKyPQ4O-72">
          <mxGeometry relative="1" as="geometry" />
        </mxCell>
        <mxCell id="BLw7UrRm_ujUXIKyPQ4O-258" value="pincode" style="ellipse;whiteSpace=wrap;html=1;align=center;" vertex="1" parent="1">
          <mxGeometry x="285" y="670" width="100" height="40" as="geometry" />
        </mxCell>
        <mxCell id="BLw7UrRm_ujUXIKyPQ4O-262" style="edgeStyle=orthogonalEdgeStyle;rounded=0;orthogonalLoop=1;jettySize=auto;html=1;exitX=0;exitY=0.5;exitDx=0;exitDy=0;entryX=0.5;entryY=0;entryDx=0;entryDy=0;endArrow=none;startFill=0;" edge="1" parent="1" source="BLw7UrRm_ujUXIKyPQ4O-260" target="BLw7UrRm_ujUXIKyPQ4O-255">
          <mxGeometry relative="1" as="geometry" />
        </mxCell>
        <mxCell id="BLw7UrRm_ujUXIKyPQ4O-260" value="paymentID" style="ellipse;whiteSpace=wrap;html=1;align=center;" vertex="1" parent="1">
          <mxGeometry x="590" y="710" width="100" height="40" as="geometry" />
        </mxCell>
        <mxCell id="BLw7UrRm_ujUXIKyPQ4O-263" style="edgeStyle=orthogonalEdgeStyle;rounded=0;orthogonalLoop=1;jettySize=auto;html=1;exitX=0;exitY=0.5;exitDx=0;exitDy=0;entryX=0.5;entryY=1;entryDx=0;entryDy=0;endArrow=none;startFill=0;" edge="1" parent="1" source="BLw7UrRm_ujUXIKyPQ4O-261" target="BLw7UrRm_ujUXIKyPQ4O-255">
          <mxGeometry relative="1" as="geometry" />
        </mxCell>
        <mxCell id="BLw7UrRm_ujUXIKyPQ4O-261" value="paymentMode" style="ellipse;whiteSpace=wrap;html=1;align=center;" vertex="1" parent="1">
          <mxGeometry x="600" y="820" width="100" height="40" as="geometry" />
        </mxCell>
        <mxCell id="BLw7UrRm_ujUXIKyPQ4O-265" style="edgeStyle=orthogonalEdgeStyle;rounded=0;orthogonalLoop=1;jettySize=auto;html=1;exitX=1;exitY=1;exitDx=0;exitDy=0;entryX=0.5;entryY=0;entryDx=0;entryDy=0;endArrow=none;startFill=0;" edge="1" parent="1" source="BLw7UrRm_ujUXIKyPQ4O-264" target="BLw7UrRm_ujUXIKyPQ4O-50">
          <mxGeometry relative="1" as="geometry" />
        </mxCell>
        <mxCell id="BLw7UrRm_ujUXIKyPQ4O-264" value="paymentID" style="ellipse;whiteSpace=wrap;html=1;align=center;" vertex="1" parent="1">
          <mxGeometry x="150" y="370" width="100" height="40" as="geometry" />
        </mxCell>
        <mxCell id="BLw7UrRm_ujUXIKyPQ4O-266" value="" style="endArrow=none;html=1;rounded=0;entryX=1;entryY=0.5;entryDx=0;entryDy=0;exitX=0.5;exitY=0;exitDx=0;exitDy=0;" edge="1" parent="1" source="BLw7UrRm_ujUXIKyPQ4O-272" target="BLw7UrRm_ujUXIKyPQ4O-50">
          <mxGeometry relative="1" as="geometry">
            <mxPoint x="440" y="510" as="sourcePoint" />
            <mxPoint x="540" y="550" as="targetPoint" />
            <Array as="points">
              <mxPoint x="440" y="520" />
            </Array>
          </mxGeometry>
        </mxCell>
        <mxCell id="BLw7UrRm_ujUXIKyPQ4O-267" value="1" style="resizable=0;html=1;whiteSpace=wrap;align=right;verticalAlign=bottom;" connectable="0" vertex="1" parent="BLw7UrRm_ujUXIKyPQ4O-266">
          <mxGeometry x="1" relative="1" as="geometry" />
        </mxCell>
        <mxCell id="BLw7UrRm_ujUXIKyPQ4O-270" style="edgeStyle=orthogonalEdgeStyle;rounded=0;orthogonalLoop=1;jettySize=auto;html=1;exitX=0;exitY=0.5;exitDx=0;exitDy=0;entryX=1;entryY=0.25;entryDx=0;entryDy=0;endArrow=none;startFill=0;" edge="1" parent="1" source="BLw7UrRm_ujUXIKyPQ4O-268" target="BLw7UrRm_ujUXIKyPQ4O-255">
          <mxGeometry relative="1" as="geometry" />
        </mxCell>
        <mxCell id="BLw7UrRm_ujUXIKyPQ4O-268" value="paymentTime" style="ellipse;whiteSpace=wrap;html=1;align=center;" vertex="1" parent="1">
          <mxGeometry x="670" y="740" width="100" height="40" as="geometry" />
        </mxCell>
        <mxCell id="BLw7UrRm_ujUXIKyPQ4O-271" style="edgeStyle=orthogonalEdgeStyle;rounded=0;orthogonalLoop=1;jettySize=auto;html=1;exitX=0;exitY=0.5;exitDx=0;exitDy=0;entryX=1;entryY=0.75;entryDx=0;entryDy=0;endArrow=none;startFill=0;" edge="1" parent="1" source="BLw7UrRm_ujUXIKyPQ4O-269" target="BLw7UrRm_ujUXIKyPQ4O-255">
          <mxGeometry relative="1" as="geometry" />
        </mxCell>
        <mxCell id="BLw7UrRm_ujUXIKyPQ4O-269" value="paymentAmount" style="ellipse;whiteSpace=wrap;html=1;align=center;" vertex="1" parent="1">
          <mxGeometry x="680" y="790" width="100" height="40" as="geometry" />
        </mxCell>
        <mxCell id="BLw7UrRm_ujUXIKyPQ4O-272" value="has" style="shape=rhombus;perimeter=rhombusPerimeter;whiteSpace=wrap;html=1;align=center;" vertex="1" parent="1">
          <mxGeometry x="450" y="640" width="120" height="60" as="geometry" />
        </mxCell>
        <mxCell id="BLw7UrRm_ujUXIKyPQ4O-273" value="" style="endArrow=none;html=1;rounded=0;entryX=0;entryY=0.5;entryDx=0;entryDy=0;exitX=0.5;exitY=1;exitDx=0;exitDy=0;" edge="1" parent="1" source="BLw7UrRm_ujUXIKyPQ4O-272" target="BLw7UrRm_ujUXIKyPQ4O-255">
          <mxGeometry relative="1" as="geometry">
            <mxPoint x="380" y="680" as="sourcePoint" />
            <mxPoint x="540" y="680" as="targetPoint" />
            <Array as="points">
              <mxPoint x="510" y="790" />
            </Array>
          </mxGeometry>
        </mxCell>
        <mxCell id="BLw7UrRm_ujUXIKyPQ4O-274" value="1" style="resizable=0;html=1;whiteSpace=wrap;align=right;verticalAlign=bottom;" connectable="0" vertex="1" parent="BLw7UrRm_ujUXIKyPQ4O-273">
          <mxGeometry x="1" relative="1" as="geometry" />
        </mxCell>
      </root>
    </mxGraphModel>
  </diagram>
</mxfile>
